{"title":"8.Femmes.(2002) - 8 Women.DVDrip.Xvid","uid":6974222,"size":730660596,"categoryP":"video","categoryS":"movies","magnet":"?xt=urn:btih:fd415365b0d1f3663fead334d560bb43589bc232&amp;dn=8.Femmes.%282002%29+-+8+Women.DVDrip.Xvid&amp;tr=udp%3A%2F%2Ftracker.openbittorrent.com%3A80&amp;tr=udp%3A%2F%2Fopen.demonii.com%3A1337&amp;tr=udp%3A%2F%2Ftracker.coppersurfer.tk%3A6969&amp;tr=udp%3A%2F%2Fexodus.desync.com%3A6969","seeders":3,"leechers":1,"uploader":"xiliaeuro","files":2,"time":1327188848,"description":"IMDB Ratings: 7.0/10\n\nOne murdered man, eight women, each seeming to be more eager than the others to know the truth. Gimme, gimme, gimme some clues to make up my mind. And eventually enter the truth. Oh, thou cruel woman! \n\nDanielle Darrieux, Catherine Deneuve, \tIsabelle Huppert, Emmanuelle BÃƒÂ©art, \tFanny Ardant, \tVirginie Ledoyen, Ludivine Sagnier\n\n\n\nFormat                         : AVI\nFormat/Info                    : Audio Video Interleave\nFile size                      : 697 MiB\nDuration                       : 1h 46mn\nOverall bit rate               : 918 Kbps\n\nVideo\nID                             : 0\nFormat                         : MPEG-4 Visual\nFormat settings, BVOP          : Yes\nFormat settings, QPel          : No\nFormat settings, GMC           : No warppoints\nFormat settings, Matrix        : Default (MPEG)\nCodec ID                       : XVID\nCodec ID/Hint                  : XviD\nDuration                       : 1h 46mn\nBit rate                       : 777 Kbps\nWidth                          : 640 pixels\nHeight                         : 368 pixels\nDisplay aspect ratio           : 16:9\nFrame rate                     : 25.000 fps\nColor space                    : YUV\nChroma subsampling             : 4:2:0\nBit depth                      : 8 bits\nScan type                      : Progressive\nCompression mode               : Lossy\nBits/(Pixel*Frame)             : 0.132\nStream size                    : 590 MiB (85%)\nTitle                          : NeoVideo92CF\n\nAudio\nID                             : 1\nFormat                         : MPEG Audio\nFormat version                 : Version 1\nFormat profile                 : Layer 3\nMode                           : Joint stereo\nMode extension                 : MS Stereo\nCodec ID                       : 55\nCodec ID/Hint                  : MP3\nDuration                       : 1h 46mn\nBit rate mode                  : Constant\nBit rate                       : 128 Kbps\nChannel(s)                     : 2 channels\nSampling rate                  : 48.0 KHz\nCompression mode               : Lossy\nStream size                    : 97.1 MiB (14%)\nAlignment                      : Split accross interleaves\nInterleave, duration           : 24 ms (0.60 video frame)\nTitle                          : NeoSound92CF0\n\n","torrent":{"xt":"urn:btih:fd415365b0d1f3663fead334d560bb43589bc232","amp;dn":"8.Femmes.%282002%29+-+8+Women.DVDrip.Xvid","amp;tr":["udp%3A%2F%2Ftracker.openbittorrent.com%3A80","udp%3A%2F%2Fopen.demonii.com%3A1337","udp%3A%2F%2Ftracker.coppersurfer.tk%3A6969","udp%3A%2F%2Fexodus.desync.com%3A6969"],"infoHash":"fd415365b0d1f3663fead334d560bb43589bc232","infoHashBuffer":{"type":"Buffer","data":[253,65,83,101,176,209,243,102,63,234,211,52,213,96,187,67,88,155,194,50]},"announce":[],"urlList":[]}}